<?xml version="1.0" encoding="UTF-8" standalone="no"?>
<svg
   xmlns:dc="http://purl.org/dc/elements/1.1/"
   xmlns:cc="http://creativecommons.org/ns#"
   xmlns:rdf="http://www.w3.org/1999/02/22-rdf-syntax-ns#"
   xmlns:svg="http://www.w3.org/2000/svg"
   xmlns="http://www.w3.org/2000/svg"
   xmlns:sodipodi="http://sodipodi.sourceforge.net/DTD/sodipodi-0.dtd"
   xmlns:inkscape="http://www.inkscape.org/namespaces/inkscape"
   width="1.73in"
   height="2in"
   viewBox="0 0 43.942002 50.800001"
   version="1.1"
   id="svg8"
   sodipodi:docname="logo.svg"
   inkscape:version="1.0.1 (c497b03c, 2020-09-10)"
   inkscape:export-filename="/Users/caldwellst/Documents/repos/packages/billionaiRe/man/figures/logo.png"
   inkscape:export-xdpi="1200"
   inkscape:export-ydpi="1200">
  <defs
     id="defs2">
    <clipPath
       clipPathUnits="userSpaceOnUse"
       id="clipPath997">
      <path
         d="M 147.549,375.258 H 432.014 V 636.754 H 147.549 Z"
         id="path995" />
    </clipPath>
  </defs>
  <sodipodi:namedview
     id="base"
     pagecolor="#ffffff"
     bordercolor="#666666"
     borderopacity="1.0"
     inkscape:pageopacity="0.0"
     inkscape:pageshadow="2"
     inkscape:zoom="2.8284271"
     inkscape:cx="41.992522"
     inkscape:cy="106.32344"
     inkscape:document-units="mm"
     inkscape:current-layer="layer1"
     inkscape:document-rotation="0"
     showgrid="false"
     units="in"
     inkscape:window-width="1252"
     inkscape:window-height="943"
     inkscape:window-x="0"
     inkscape:window-y="25"
     inkscape:window-maximized="0"
     showguides="false" />
  <metadata
     id="metadata5">
    <rdf:RDF>
      <cc:Work
         rdf:about="">
        <dc:format>image/svg+xml</dc:format>
        <dc:type
           rdf:resource="http://purl.org/dc/dcmitype/StillImage" />
        <dc:title />
      </cc:Work>
    </rdf:RDF>
  </metadata>
  <g
     inkscape:label="Layer 1"
     inkscape:groupmode="layer"
     id="layer1">
    <path
       sodipodi:type="star"
       style="fill:#0d2d5c;fill-opacity:1;fill-rule:evenodd;stroke-width:0.264583"
       id="path25"
       sodipodi:sides="6"
       sodipodi:cx="22.226181"
       sodipodi:cy="25.664583"
       sodipodi:r1="25.664583"
       sodipodi:r2="22.226181"
       sodipodi:arg1="-1.5707963"
       sodipodi:arg2="-1.0471976"
       inkscape:flatsided="true"
       inkscape:rounded="0"
       inkscape:randomized="0"
       transform="scale(0.98851888,0.98969073)"
       d="m 22.226182,0 22.22618,12.832292 0,25.664583 L 22.22618,51.329166 -3.4765502e-7,38.496874 3.4002481e-7,12.832291 Z" />
    <path
       sodipodi:type="star"
       style="fill:#f2f2f2;fill-opacity:1;fill-rule:evenodd;stroke-width:0.264583"
       id="path25-7"
       sodipodi:sides="6"
       sodipodi:cx="22.226181"
       sodipodi:cy="25.664583"
       sodipodi:r1="25.664583"
       sodipodi:r2="22.226181"
       sodipodi:arg1="-1.5707963"
       sodipodi:arg2="-1.0471976"
       inkscape:flatsided="true"
       inkscape:rounded="0"
       inkscape:randomized="0"
       transform="matrix(0.89709517,0,0,0.89815865,2.1336003,2.2352)"
       d="m 22.226182,0 22.22618,12.832292 0,25.664583 L 22.22618,51.329166 -3.4765502e-7,38.496874 3.4002481e-7,12.832291 Z" />
    <text
       xml:space="preserve"
       style="font-style:normal;font-weight:normal;font-size:4.23333px;line-height:1.25;font-family:sans-serif;fill:#11315f;fill-opacity:1;stroke:none;stroke-width:0.264583"
       x="11.890996"
       y="41.561451"
       id="text54"><tspan
         sodipodi:role="line"
         id="tspan52"
         x="11.890996"
         y="41.561451"
         style="font-style:normal;font-variant:normal;font-weight:bold;font-stretch:normal;font-size:4.23333px;font-family:Roboto;-inkscape-font-specification:'Roboto Bold';fill:#11315f;fill-opacity:1;stroke-width:0.264583">billionaiRe</tspan></text>
    <g
       id="g993"
       clip-path="url(#clipPath997)"
       transform="matrix(0.12719144,0,0,-0.12719144,-14.886726,86.26816)"
       style="stroke:none">
      <path
         d="M 431.514,307.786 H 148.049 v 336 h 283.465 z"
         style="fill:none;stroke:none;stroke-width:1;stroke-linecap:butt;stroke-linejoin:miter;stroke-miterlimit:10;stroke-dasharray:none;stroke-opacity:1"
         id="path999" />
      <g
         id="g1001"
         transform="translate(289.856,478.2502)"
         style="stroke:none">
        <path
           d="m 0,0 0.002,0.001 -16.031,16.028 -5.6,5.603 c -10.091,10.091 -23.534,15.649 -37.85,15.649 -2.033,0 -4.047,-0.125 -6.039,-0.347 3.194,-5.429 7.122,-10.544 11.78,-15.205 l 21.622,-21.621 0.006,0.006 0.086,-0.084 13.839,-13.841 h -0.002 l 14.052,-14.049 4.279,-4.281 15.998,16 -4.281,4.281 z"
           style="fill:#57c491;fill-opacity:1;fill-rule:nonzero;stroke:none"
           id="path1003" />
      </g>
      <g
         id="g1005"
         transform="translate(343.871,607.7388)"
         style="stroke:none">
        <path
           d="m 0,0 c -13.136,13.139 -30.231,20.882 -48.597,22.131 -1.75,0.119 -3.51,0.182 -5.281,0.182 -1.77,0 -3.528,-0.063 -5.278,-0.182 -18.367,-1.249 -35.46,-8.992 -48.598,-22.131 -19.212,-19.215 -25.982,-46.216 -20.344,-70.936 4.761,0.915 9.647,1.389 14.605,1.389 2.89,0 5.754,-0.166 8.586,-0.479 -1.62,5.154 -2.471,10.583 -2.471,16.148 0,14.315 5.559,27.756 15.651,37.852 10.108,10.107 23.549,15.672 37.849,15.672 14.299,0.002 27.742,-5.565 37.852,-15.674 10.112,-10.11 15.677,-23.553 15.677,-37.851 0,-5.476 -0.823,-10.822 -2.397,-15.907 -2.537,-8.193 -7.041,-15.705 -13.28,-21.944 l -13.194,-13.195 -8.653,-8.648 16.029,-16.031 L 0,-107.757 c 4.674,4.675 8.662,9.85 11.919,15.402 3.947,6.72 6.822,13.994 8.536,21.611 1.233,5.473 1.863,11.119 1.863,16.866 C 22.318,-33.524 14.393,-14.39 0,0"
           style="fill:#57c491;fill-opacity:1;fill-rule:nonzero;stroke:none"
           id="path1007" />
      </g>
      <g
         id="g1009"
         transform="translate(268.231,424.1801)"
         style="stroke:none">
        <path
           d="M 0,0 C -10.115,-10.11 -23.554,-15.678 -37.851,-15.678 -52.15,-15.682 -65.593,-10.11 -75.704,0 c -10.108,10.107 -15.672,23.549 -15.672,37.85 0,14.299 5.564,27.741 15.673,37.853 8.657,8.654 19.784,13.964 31.81,15.3 1.992,0.223 4.006,0.347 6.039,0.347 14.316,0 27.759,-5.557 37.85,-15.647 l 5.6,-5.604 0.025,0.025 16.004,16.003 -5.601,5.601 c -12.332,12.332 -28.17,19.903 -45.291,21.805 -2.831,0.313 -5.696,0.479 -8.587,0.479 -4.957,0 -9.842,-0.473 -14.604,-1.389 -14.799,-2.851 -28.401,-10.023 -39.274,-20.895 -13.136,-13.137 -20.881,-30.233 -22.131,-48.599 h -0.182 V 37.85 32.571 h 0.182 c 1.25,-18.366 8.995,-35.461 22.131,-48.597 14.391,-14.394 33.528,-22.319 53.881,-22.319 20.352,0 39.485,7.926 53.875,22.316 l 5.825,5.823 L 5.82,5.822 Z"
           style="fill:#2a477f;fill-opacity:1;fill-rule:nonzero;stroke:none"
           id="path1011" />
      </g>
      <g
         id="g1013"
         transform="translate(326.336,473.8261)"
         style="stroke:none">
        <path
           d="m 0,0 v 0 l -20.338,20.339 -16.005,-16.005 11.745,-11.747 -0.021,-0.024 4.359,-4.36 -15.997,-15.998 16.028,-16.029 15.998,15.998 16.027,16.029 z"
           style="fill:#2a477f;fill-opacity:1;fill-rule:nonzero;stroke:none"
           id="path1015" />
      </g>
      <g
         id="g1017"
         transform="translate(305.883,494.2791)"
         style="stroke:none">
        <path
           d="M 0,0 5.824,5.824 C 6.773,6.772 7.76,7.667 8.768,8.535 l 13.195,13.196 c 6.238,6.238 10.74,13.75 13.279,21.943 C 18.062,41.8 2.164,34.221 -10.203,21.852 l -5.824,-5.824 -16.004,-16.004 16.028,-16.029 z"
           style="fill:#2393d9;fill-opacity:1;fill-rule:nonzero;stroke:none"
           id="path1019" />
      </g>
      <g
         id="g1021"
         transform="translate(425.569,467.5322)"
         style="stroke:none">
        <path
           d="m 0,0 c -1.25,18.367 -8.996,35.46 -22.132,48.599 -10.833,10.831 -24.374,17.994 -39.111,20.864 -1.714,-7.617 -4.589,-14.89 -8.535,-21.611 11.952,-1.372 23.006,-6.669 31.617,-15.281 10.11,-10.109 15.676,-23.55 15.676,-37.851 0,-14.298 -5.566,-27.738 -15.676,-37.849 -10.111,-10.111 -23.549,-15.677 -37.849,-15.677 -14.3,0 -27.742,5.566 -37.852,15.677 l -5.6,5.599 -16.028,16.029 -0.079,0.078 -4.279,4.281 -11.752,11.749 -0.111,0.113 -16.027,16.028 -0.085,0.084 -0.007,-0.006 -16.021,-16.021 32.333,-32.335 16.028,-16.027 5.601,-5.601 c 14.389,-14.39 33.524,-22.315 53.879,-22.315 h 0.002 c 20.352,0 39.486,7.925 53.876,22.315 C -8.996,-46.017 -1.249,-28.923 0,-10.559 0.117,-8.81 0.181,-7.049 0.181,-5.28 0.181,-3.509 0.117,-1.748 0,0"
           style="fill:#2393d9;fill-opacity:1;fill-rule:nonzero;stroke:none"
           id="path1023" />
      </g>
    </g>
  </g>
</svg>
